<?xml version="1.0" standalone="no"?>
<!DOCTYPE svg PUBLIC "-//W3C//DTD SVG 20010904//EN"
 "http://www.w3.org/TR/2001/REC-SVG-20010904/DTD/svg10.dtd">
<svg version="1.0" xmlns="http://www.w3.org/2000/svg"
 width="200.000000pt" height="200.000000pt" viewBox="0 0 200.000000 200.000000"
 preserveAspectRatio="xMidYMid meet">

<g transform="translate(0.000000,200.000000) scale(0.100000,-0.100000)"
fill="#000000" stroke="none">
<path d="M1 1518 l1 -483 34 455 c18 250 33 467 33 483 1 24 -2 27 -34 27
l-35 0 1 -482z"/>
<path d="M1070 1850 c-8 -5 -28 -10 -45 -10 -16 0 -38 -7 -48 -15 -13 -9 -35
-12 -71 -8 -90 9 -192 -33 -274 -114 -29 -29 -58 -66 -63 -83 -6 -16 -14 -30
-19 -30 -4 0 -13 -13 -20 -30 -7 -16 -18 -30 -26 -30 -8 0 -11 -6 -8 -15 3 -8
-10 -34 -32 -60 -28 -34 -34 -49 -25 -54 9 -6 2 -30 -30 -97 -24 -49 -47 -91
-51 -94 -4 -3 -10 -26 -14 -50 -3 -25 -17 -69 -30 -97 -23 -49 -24 -55 -9 -82
19 -39 19 -40 -9 -51 -33 -12 -40 -65 -14 -102 10 -15 22 -27 26 -27 4 1 20 1
35 0 24 -1 26 -3 17 -21 -8 -14 -8 -20 0 -20 15 0 -26 -51 -53 -68 l-22 -13
23 4 c26 6 29 -5 6 -24 -10 -8 -14 -23 -11 -43 3 -23 -1 -36 -17 -50 -12 -11
-15 -17 -6 -14 14 5 60 -38 60 -56 0 -5 6 -14 14 -20 8 -6 16 -27 18 -46 2
-22 10 -39 22 -45 25 -13 32 -35 13 -35 -9 0 -18 8 -20 17 -4 16 -5 16 -6 -1
-1 -12 -6 -16 -16 -12 -19 7 -20 -8 -2 -26 8 -7 19 -24 26 -36 19 -36 44 -62
59 -62 8 0 11 -7 7 -19 -3 -10 -2 -27 2 -37 6 -17 8 -16 13 6 6 22 8 20 17
-20 6 -26 11 -35 12 -22 l1 24 29 -24 c21 -16 28 -30 26 -46 -2 -12 0 -20 5
-17 4 3 11 -2 14 -11 3 -8 11 -12 17 -9 5 4 17 -1 25 -11 10 -14 14 -15 12 -4
-2 8 3 14 10 12 6 -1 12 5 12 14 0 13 3 14 14 5 11 -10 15 -8 18 6 3 15 8 14
36 -14 18 -17 32 -26 32 -20 0 8 3 7 9 -1 6 -10 10 -8 16 10 4 12 7 26 6 31
-1 4 3 7 9 7 5 0 10 -9 10 -20 0 -11 4 -20 10 -20 5 0 3 19 -5 41 -20 55 -19
79 5 109 11 14 20 30 20 35 0 27 23 34 48 15 26 -21 77 -27 87 -10 4 6 3 10
-2 9 -11 -3 -54 17 -73 33 -11 10 -15 34 -15 90 0 49 4 74 9 68 6 -6 14 -10
19 -10 5 0 -8 16 -28 35 -32 30 -36 39 -30 62 4 16 9 37 10 48 1 11 8 19 14
18 6 -2 11 1 11 6 0 5 18 2 41 -7 33 -13 46 -13 73 -4 18 7 47 12 64 12 25 0
32 -4 32 -20 0 -13 7 -20 20 -20 11 0 20 4 20 9 0 5 7 12 15 15 27 10 40 -36
20 -74 -9 -18 -29 -75 -45 -126 -26 -89 -27 -94 -9 -89 11 4 19 2 19 -5 0 -7
11 -25 25 -42 14 -16 25 -40 25 -52 0 -13 18 -41 40 -65 22 -23 38 -48 34 -54
-3 -7 2 -3 10 7 9 11 16 16 16 10 0 -5 4 -2 10 6 8 12 10 12 16 -4 5 -14 9
-15 15 -4 8 11 10 11 18 -1 7 -11 9 -11 14 0 4 12 7 11 16 -1 9 -12 11 -10 11
10 0 20 2 22 10 10 8 -12 10 -12 11 5 0 16 2 15 10 -6 5 -14 21 -31 34 -37 14
-7 25 -16 25 -22 0 -6 4 -9 9 -6 5 4 5 22 0 43 -4 21 -4 39 0 41 5 2 7 22 4
45 -3 32 -2 38 6 27 9 -11 10 -5 5 28 -4 28 -3 42 5 42 6 0 11 16 11 36 0 19
4 33 9 30 5 -3 11 16 14 42 3 26 1 50 -4 53 -5 3 2 11 15 17 30 14 43 54 27
88 -15 33 -14 44 4 44 22 0 18 13 -10 40 -31 29 -32 46 -2 54 41 10 70 45 63
77 -3 18 -1 29 6 29 6 0 4 8 -5 18 -15 16 -15 20 -1 40 16 23 6 30 -14 10 -9
-9 -12 -8 -12 6 0 33 44 15 58 -24 12 -33 11 -20 -4 45 -4 17 -13 38 -22 47
-8 10 -12 24 -9 32 4 9 -1 17 -11 20 -9 3 -23 18 -30 33 -11 25 -11 29 8 42
20 13 29 38 10 26 -13 -8 -13 1 2 25 12 19 13 18 31 -13 10 -17 15 -23 12 -12
-4 11 -9 39 -11 63 -4 32 -2 42 9 42 12 0 14 9 10 40 -5 33 -3 40 11 40 9 0
22 -11 28 -25 6 -14 15 -25 20 -25 17 0 7 20 -26 47 -22 18 -38 43 -46 71 -6
25 -25 56 -44 75 -26 25 -35 44 -41 82 -9 68 -47 133 -101 175 -43 34 -94 99
-94 120 0 9 -14 14 -24 8 -2 -2 -13 6 -25 16 -16 14 -18 22 -9 27 8 5 2 10
-16 15 -26 6 -82 2 -168 -12 -27 -5 -38 -3 -38 6 0 8 8 10 25 6 14 -4 25 -2
25 4 0 13 -40 13 -60 0z m2 -170 c67 -16 134 -38 148 -48 59 -45 131 -232 88
-232 -6 0 -2 -9 10 -20 18 -17 20 -23 10 -34 -7 -8 -15 -10 -18 -6 -3 5 -17
11 -30 13 -14 3 -34 8 -45 12 -16 5 -16 3 5 -14 14 -12 31 -26 38 -32 22 -18
6 -24 -58 -21 -60 4 -61 4 -44 23 9 10 24 19 32 19 12 0 12 3 -4 15 -17 13
-17 16 -3 25 9 5 26 18 39 28 l24 19 -31 5 c-56 8 -139 -49 -104 -71 8 -5 20
-7 28 -4 30 12 10 -8 -22 -21 -24 -11 -35 -21 -35 -36 0 -25 22 -50 44 -50 8
0 21 -6 28 -13 33 -34 91 -24 144 25 l21 19 28 -57 c24 -49 27 -65 22 -118 -3
-33 -14 -81 -26 -106 -11 -25 -21 -55 -21 -68 0 -52 -57 -146 -121 -202 -62
-54 -64 -55 -137 -59 -85 -4 -113 7 -143 56 -11 18 -29 33 -38 33 -17 0 -65
66 -88 121 -9 20 -8 30 0 39 9 9 3 20 -29 48 -52 47 -64 70 -64 126 0 51 9 59
80 71 25 4 64 19 88 32 23 14 48 23 55 20 22 -8 57 12 57 32 0 29 -31 93 -55
113 -21 18 -80 42 -127 52 -34 8 -38 46 -8 76 11 11 22 39 26 62 10 75 65 156
106 158 4 0 63 -13 130 -30z m538 -371 c0 -6 -4 -7 -10 -4 -5 3 -10 11 -10 16
0 6 5 7 10 4 6 -3 10 -11 10 -16z m-725 -29 c4 -6 -10 -10 -35 -10 -25 0 -39
4 -35 10 3 6 19 10 35 10 16 0 32 -4 35 -10z m-515 -110 c-6 -12 -14 -19 -17
-17 -2 3 1 15 7 27 6 12 14 19 17 17 2 -3 -1 -15 -7 -27z m-25 -180 c3 -5 1
-10 -4 -10 -6 0 -11 5 -11 10 0 6 2 10 4 10 3 0 8 -4 11 -10z m-15 -100 c0 -5
-5 -10 -11 -10 -5 0 -7 5 -4 10 3 6 8 10 11 10 2 0 4 -4 4 -10z m24 -46 c28
-11 17 -24 -19 -24 -36 0 -48 15 -17 23 9 3 18 5 19 6 1 0 8 -2 17 -5z m1191
-104 c-21 -23 -35 -26 -35 -6 0 15 14 24 39 25 11 1 10 -4 -4 -19z m55 -9 c0
-12 -21 -28 -52 -40 -19 -7 -26 -7 -24 2 3 23 18 38 32 33 8 -3 14 -1 14 4 0
6 7 10 15 10 8 0 15 -4 15 -9z m-849 -624 c-10 -9 -11 -8 -5 6 3 10 9 15 12
12 3 -3 0 -11 -7 -18z"/>
<path d="M970 1070 c-29 -54 0 -78 71 -60 24 6 53 13 64 15 11 2 22 4 25 4 3
1 -2 6 -10 11 -13 8 -12 10 3 10 9 0 17 7 17 15 0 19 -34 20 -49 2 -12 -16
-43 -16 -63 0 -27 21 -48 22 -58 3z"/>
<path d="M954 943 c-10 -7 -30 -13 -46 -13 -23 0 -28 -4 -28 -25 0 -14 5 -25
11 -25 5 0 8 -3 6 -7 -3 -5 -1 -17 2 -27 8 -21 95 -54 144 -55 35 -1 122 42
131 65 10 26 -1 29 -36 10 -38 -20 -123 -19 -123 2 0 7 -6 17 -14 21 -11 7
-10 10 5 14 36 11 134 16 134 7 0 -11 70 -1 88 13 20 15 10 18 -84 22 -49 3
-108 6 -130 8 -24 2 -49 -2 -60 -10z"/>
<path d="M1976 628 c-9 -139 -21 -323 -26 -408 -5 -85 -12 -170 -14 -188 -5
-31 -3 -32 30 -32 l34 0 0 440 c0 242 -1 440 -3 440 -2 0 -11 -114 -21 -252z"/>
<path d="M1546 273 c-6 -14 -5 -15 5 -6 7 7 10 15 7 18 -3 3 -9 -2 -12 -12z"/>
<path d="M400 220 c0 -5 5 -10 11 -10 5 0 7 5 4 10 -3 6 -8 10 -11 10 -2 0 -4
-4 -4 -10z"/>
<path d="M282 80 l1 -85 7 65 c3 36 3 74 -1 85 -4 11 -7 -17 -7 -65z"/>
</g>
</svg>
